# xmcd
#
# Track frame offsets:
#	165
#	15563
#	30514
#	39048
#	53685
#	64508
#	76375
#	90162
#	100874
#	113045
#	125217
#	139768
#
# Disc length: 2082 seconds
#
# Revision: 0
# Processed by: cddbd v1.5PL3 Copyright (c) Steve Scherf et al.
# Submitted via: dBpowerAMP V4.0
#
DISCID=8708200c
DTITLE=Various Artist - O Passado É Uma Parada - Vol. 12
DYEAR=1900
DGENRE=Easy Listening
TTITLE0=Reginaldo Rossi/Festa dos Pães
TTITLE1=Carlos André/Até Mais Ver
TTITLE2=Adilson Ramos/Beija-me Muito
TTITLE3=Waldik Soriano/Peguei um Ita no Norte
TTITLE4=Gregorio Barrios/Sabra Dios
TTITLE5=José Augusto/Taça de Vinho
TTITLE6=Noite Ilustrada/Quando Eu Chamar Saudade
TTITLE7=Lindomar Castilho/Contigo Aprendi
TTITLE8=Roberto Barreiros/Não Quero Voltar Atrás
TTITLE9=Carlos Alberto/Tão Somente Uma Vez
TTITLE10=Alipio Martins/Garota-Onde Nadará V.-Vem Me Amar
TTITLE11=Martinha/Estou Apaixonada por um Velho Amigo
EXTD=
EXTT0=
EXTT1=
EXTT2=
EXTT3=
EXTT4=
EXTT5=
EXTT6=
EXTT7=
EXTT8=
EXTT9=
EXTT10=
EXTT11=
PLAYORDER=
